<svg width="1431" height="191.205" viewBox="0 0 1431 191.205" xmlns="http://www.w3.org/2000/svg"><g id="svgGroup" stroke-linecap="round" fill-rule="evenodd" font-size="9pt" stroke="#00000000" stroke-width="0.25mm" fill="#fffafa" style="stroke:#00000000;stroke-width:0.25mm;fill:#fffafa"><path d="M 928 191.204 Q 919.8 191.204 913.9 186.804 Q 908.196 182.55 908.007 175.492 A 18.196 18.196 0 0 1 908 175.004 Q 908 169.204 911.5 165.104 A 11.931 11.931 0 0 1 915.021 162.23 A 10.968 10.968 0 0 1 920.2 161.004 Q 922.173 161.004 923.2 161.544 A 2.511 2.511 0 0 1 923.6 161.804 Q 924.6 162.604 925.2 163.604 A 21.031 21.031 0 0 0 928.005 167.239 A 19.022 19.022 0 0 0 928.9 168.104 A 7.062 7.062 0 0 0 931.969 169.702 Q 933.166 170.004 934.6 170.004 A 14.129 14.129 0 0 0 941.184 168.332 A 19.182 19.182 0 0 0 943.9 166.604 Q 948.4 163.204 952.2 158.804 A 60.435 60.435 0 0 0 954.462 156.107 Q 957.1 152.785 960.4 147.904 Q 965.2 140.804 970 131.804 A 47.161 47.161 0 0 1 966.784 134.359 Q 965.154 135.535 963.614 136.392 A 23.363 23.363 0 0 1 961.8 137.304 A 21.114 21.114 0 0 1 958.438 138.495 A 15.403 15.403 0 0 1 954.6 139.004 Q 950.4 139.004 946.4 135.904 A 10.059 10.059 0 0 1 943.777 132.724 Q 942.017 129.512 941.4 124.204 A 107.026 107.026 0 0 0 940.525 117.254 A 146.72 146.72 0 0 0 939.1 109.605 Q 937.4 101.604 934.9 94.104 A 60.623 60.623 0 0 0 932.502 87.982 Q 931.035 84.785 929.301 82.147 A 36.918 36.918 0 0 0 928.8 81.404 A 13.572 13.572 0 0 0 927.597 79.652 Q 926.843 78.729 925.996 78.086 A 7.882 7.882 0 0 0 925.6 77.804 Q 924.37 76.984 922.391 76.537 A 19.322 19.322 0 0 0 920.4 76.204 Q 918.346 76.033 917.537 75.129 A 1.991 1.991 0 0 1 917.3 74.804 Q 916.687 73.753 916.611 71.628 A 17.445 17.445 0 0 1 916.6 71.004 Q 916.6 63.804 920.6 59.404 A 13.202 13.202 0 0 1 928.851 55.172 A 18.719 18.719 0 0 1 931.4 55.004 A 16.692 16.692 0 0 1 936.076 55.619 A 11.735 11.735 0 0 1 943.2 61.304 Q 946.441 66.976 948.872 74.838 A 98.904 98.904 0 0 1 949.4 76.604 Q 950.4 80.204 951.5 86.104 Q 952.6 92.004 953.5 98.804 A 203.18 203.18 0 0 1 954.535 108.269 A 175.016 175.016 0 0 1 954.8 111.804 A 5.818 5.818 0 0 0 955.167 113.677 Q 955.875 115.473 957.918 115.993 A 7.66 7.66 0 0 0 959.8 116.204 A 20.587 20.587 0 0 0 970.173 113.356 A 25.814 25.814 0 0 0 972 112.204 Q 977.8 108.204 981.5 101.804 A 26.885 26.885 0 0 0 984.997 91.652 A 25.873 25.873 0 0 0 985.2 88.404 A 27.508 27.508 0 0 0 984.934 84.492 A 21.049 21.049 0 0 0 984.2 81.204 Q 983.2 78.004 980.8 75.604 A 437.994 437.994 0 0 1 979.85 74.46 Q 978.69 73.058 977.862 72.03 A 130.203 130.203 0 0 1 977.6 71.704 Q 976.4 70.204 976.4 68.204 A 7.497 7.497 0 0 1 977.588 64.209 Q 978.249 63.14 979.277 62.116 A 14.958 14.958 0 0 1 979.6 61.804 A 26.088 26.088 0 0 1 984.872 58.008 A 31.53 31.53 0 0 1 987.3 56.804 A 28.96 28.96 0 0 1 990.264 55.665 Q 991.785 55.181 993.157 54.969 A 13.387 13.387 0 0 1 995.2 54.804 Q 1001.2 54.804 1003.2 60.504 A 24.094 24.094 0 0 1 1004.528 68.059 Q 1004.575 70.454 1004.2 73.004 Q 1003.281 80.201 1000.956 89.391 A 228.926 228.926 0 0 1 999.4 95.204 A 235.278 235.278 0 0 1 994.08 111.673 A 285.152 285.152 0 0 1 990.1 122.004 Q 984.4 136.004 977.1 149.104 A 163.868 163.868 0 0 1 968.603 162.797 A 128.804 128.804 0 0 1 961.6 172.004 A 65.132 65.132 0 0 1 951.219 182.269 A 57.212 57.212 0 0 1 946 185.904 A 35.433 35.433 0 0 1 934.938 190.459 A 32.418 32.418 0 0 1 928 191.204 Z M 28 82.404 L 21.6 82.404 Q 21.2 86.804 20.9 91.104 Q 20.6 95.404 20.6 99.004 A 59.608 59.608 0 0 0 20.868 104.803 Q 21.159 107.773 21.765 110.359 A 34.679 34.679 0 0 0 22 111.304 Q 23.4 116.604 27.4 120.404 A 9.208 9.208 0 0 1 29.22 122.919 A 7.937 7.937 0 0 1 30 126.404 Q 30 130.2 26.279 133.4 A 18.86 18.86 0 0 1 25 134.404 A 18.353 18.353 0 0 1 18.386 137.339 Q 15.552 138.004 12.2 138.004 Q 9.8 138.004 7.3 137.204 Q 5.009 136.471 3.39 133.891 A 12.639 12.639 0 0 1 3.1 133.404 Q 1.4 130.404 1.4 124.204 Q 1.4 120.204 2.2 113.704 Q 2.916 107.889 4.111 98.954 A 2789.191 2789.191 0 0 1 4.4 96.804 A 300.402 300.402 0 0 0 4.919 93.223 Q 5.473 89.239 6.107 84.06 A 957.584 957.584 0 0 0 6.7 79.104 A 193.898 193.898 0 0 0 7.919 61.835 A 221.392 221.392 0 0 0 8 55.804 A 164.323 164.323 0 0 0 7.844 48.78 A 197.749 197.749 0 0 0 7.6 44.304 A 74.872 74.872 0 0 0 6.949 38.133 A 57.714 57.714 0 0 0 6 33.204 Q 4.105 33.678 2.958 33.777 A 6.488 6.488 0 0 1 2.4 33.804 A 3.275 3.275 0 0 1 1.709 33.736 Q 1.274 33.642 0.949 33.418 A 1.81 1.81 0 0 1 0.6 33.104 A 1.821 1.821 0 0 1 0.297 32.574 Q 0.082 32.021 0.023 31.132 A 10.97 10.97 0 0 1 0 30.404 Q 0 26.404 0.9 22.304 A 22.051 22.051 0 0 1 1.974 18.773 A 16.208 16.208 0 0 1 3.8 15.404 A 13.342 13.342 0 0 1 5.829 13.13 A 10.457 10.457 0 0 1 8.5 11.404 Q 11.2 10.204 14.2 9.804 A 145.928 145.928 0 0 1 16.869 9.51 Q 20.842 9.108 26.14 8.754 A 422.251 422.251 0 0 1 26.9 8.704 Q 34.6 8.204 43.1 7.804 Q 51.6 7.404 58.6 7.404 Q 67.83 7.404 72.335 7.597 A 100.205 100.205 0 0 1 72.5 7.604 Q 77 7.804 79.4 8.204 Q 83.888 8.894 84.503 12.565 A 7.507 7.507 0 0 1 84.6 13.804 A 15.266 15.266 0 0 1 84.211 17.313 A 12.627 12.627 0 0 1 83.3 19.904 A 24.453 24.453 0 0 1 80.207 24.795 A 21.906 21.906 0 0 1 80.2 24.804 Q 78 28.004 75.5 29.304 Q 73 30.604 69 30.204 Q 65.929 29.843 60.817 29.563 A 289.239 289.239 0 0 0 59.7 29.504 A 216.689 216.689 0 0 0 54.212 29.299 Q 50.475 29.204 46.2 29.204 Q 43 29.204 37.8 29.404 Q 32.6 29.604 26.8 30.004 Q 26.628 35.848 25.865 43.095 A 252.991 252.991 0 0 1 25.6 45.504 Q 24.6 54.204 23.4 63.204 A 278.033 278.033 0 0 1 27.759 62.918 Q 31.65 62.691 36.4 62.504 Q 44 62.204 52 62.004 A 709.751 709.751 0 0 1 58.655 61.867 Q 61.698 61.82 64.421 61.808 A 408.374 408.374 0 0 1 66.2 61.804 Q 69.8 61.804 71.4 62.704 Q 73 63.604 73 66.604 A 15.679 15.679 0 0 1 72.52 70.358 Q 72.123 71.968 71.398 73.676 A 26.333 26.333 0 0 1 71.3 73.904 A 23.477 23.477 0 0 1 68.49 78.746 A 20.767 20.767 0 0 1 66.9 80.604 Q 64.38 83.217 61.599 83.217 A 5.992 5.992 0 0 1 61.2 83.204 Q 57.372 82.898 51.14 82.709 A 485.264 485.264 0 0 0 47.1 82.604 Q 38 82.404 28 82.404 Z M 201.2 94.004 L 201.8 94.204 A 110.585 110.585 0 0 1 211.322 74.789 A 103.125 103.125 0 0 1 211.5 74.504 A 57.677 57.677 0 0 1 218.514 65.374 A 47.585 47.585 0 0 1 224.8 59.804 Q 232.4 54.204 242.4 54.204 A 28.111 28.111 0 0 1 248.818 54.893 Q 253.897 56.083 257.369 59.331 A 17.701 17.701 0 0 1 258.6 60.604 Q 264.2 67.004 264.2 76.604 Q 264.2 80.604 263.3 84.204 Q 262.4 87.804 261.4 91.204 Q 260.4 94.404 259.7 97.804 Q 259 101.204 259 104.604 A 18.304 18.304 0 0 0 260.048 110.988 Q 262.364 117.25 269.8 120.004 A 6.434 6.434 0 0 1 271.082 120.72 Q 271.835 121.274 272.215 121.988 A 3.388 3.388 0 0 1 272.6 123.604 Q 272.6 125.404 271.4 128.804 A 13.999 13.999 0 0 1 269.157 132.81 A 18.818 18.818 0 0 1 267 135.104 Q 264.438 137.426 259.951 137.889 A 22.943 22.943 0 0 1 257.6 138.004 A 17.952 17.952 0 0 1 252.21 137.235 A 13.959 13.959 0 0 1 245.2 132.304 A 20.57 20.57 0 0 1 241.393 123.848 A 29.273 29.273 0 0 1 240.8 117.804 Q 240.8 112.804 241.9 107.704 A 196.489 196.489 0 0 1 243.314 101.602 A 160.415 160.415 0 0 1 244.2 98.204 Q 245 94.804 245.7 91.504 A 35.794 35.794 0 0 0 246.179 88.75 Q 246.4 87.066 246.4 85.604 Q 246.4 76.404 236.8 76.404 A 19.804 19.804 0 0 0 222.802 82.117 A 25.898 25.898 0 0 0 222.4 82.504 A 49.002 49.002 0 0 0 215.433 91.214 A 62.898 62.898 0 0 0 211.8 97.804 Q 207.4 107.004 204.6 116.404 L 204.6 121.204 A 21.935 21.935 0 0 1 203.923 126.787 A 16.487 16.487 0 0 1 200.5 133.404 A 13.45 13.45 0 0 1 191.105 138.129 A 18.933 18.933 0 0 1 189.4 138.204 Q 182.425 138.204 182.958 133.699 A 6.293 6.293 0 0 1 183 133.404 Q 185.2 124.804 186.7 115.904 A 107.192 107.192 0 0 0 188.081 103.472 A 93.022 93.022 0 0 0 188.2 98.804 A 140.181 140.181 0 0 0 188.119 93.86 Q 187.943 88.908 187.389 85.616 A 25.724 25.724 0 0 0 186.9 83.304 Q 185.6 78.404 183.4 76.504 A 13.904 13.904 0 0 0 180.082 74.398 A 17.558 17.558 0 0 0 178 73.604 Q 176.6 73.004 175.5 72.004 A 3.267 3.267 0 0 1 174.497 70.202 A 4.877 4.877 0 0 1 174.4 69.204 Q 174.4 66.999 175.765 64.421 A 18.856 18.856 0 0 1 176.6 63.004 A 17.477 17.477 0 0 1 180.079 59.117 A 23.037 23.037 0 0 1 182.9 57.104 A 17.188 17.188 0 0 1 190.917 54.643 A 20.818 20.818 0 0 1 192.2 54.604 A 15.262 15.262 0 0 1 195.693 54.976 Q 199.731 55.926 201.6 59.304 A 18.867 18.867 0 0 1 203.372 63.948 Q 203.889 66.052 204.084 68.516 A 39.345 39.345 0 0 1 204.2 71.604 Q 204.2 76.282 203.325 82.01 A 97.036 97.036 0 0 1 203.2 82.804 Q 202.2 89.004 201.2 94.004 Z M 765.628 138.124 A 35.251 35.251 0 0 0 771.6 138.604 A 42.361 42.361 0 0 0 773.458 138.563 A 35.555 35.555 0 0 0 789.7 134.004 Q 797.8 129.404 803.6 121.604 Q 809.4 113.804 812.6 104.104 Q 815.8 94.404 815.8 84.204 Q 815.8 78.166 814.479 73.22 A 27.508 27.508 0 0 0 808.9 62.304 Q 802 54.204 789.8 54.204 Q 777.6 54.204 767.9 62.304 Q 758.2 70.404 752.6 82.204 A 186.913 186.913 0 0 0 753.334 77.98 Q 753.931 74.301 754.483 70.087 A 373.888 373.888 0 0 0 755.5 61.504 Q 756.8 49.404 756.8 34.804 A 206.488 206.488 0 0 0 756.756 30.459 Q 756.461 16.456 754.2 8.804 A 22.137 22.137 0 0 0 753.737 7.404 Q 751.002 0.004 744.4 0.004 A 13.499 13.499 0 0 0 739.038 1.112 A 16.873 16.873 0 0 0 735 3.604 A 18.323 18.323 0 0 0 733.35 5.121 Q 730.6 8 730.6 11.004 A 8.208 8.208 0 0 0 730.786 12.707 A 10.957 10.957 0 0 0 731.3 14.404 A 39.5 39.5 0 0 0 731.918 15.899 A 49.248 49.248 0 0 0 733 18.204 A 58.186 58.186 0 0 1 735.074 22.85 A 62.887 62.887 0 0 1 739.2 41.004 Q 740.2 53.404 740.2 67.604 Q 740.2 84.604 738.1 101.004 Q 736 117.404 733 133.404 A 4.403 4.403 0 0 0 732.974 133.563 Q 732.757 135.066 733.694 136.136 A 4.328 4.328 0 0 0 734.6 136.904 A 9.109 9.109 0 0 0 735.103 137.209 A 7.446 7.446 0 0 0 738.8 138.204 Q 742.2 138.204 744.9 135.504 Q 747.6 132.804 749.6 129.404 Q 753.6 133.404 758.9 136.004 A 21.571 21.571 0 0 0 759.376 136.23 Q 762.212 137.536 765.628 138.124 Z M 468.488 137.516 A 43.924 43.924 0 0 0 478.4 138.604 A 45.35 45.35 0 0 0 486.05 137.984 A 33.811 33.811 0 0 0 497.7 133.804 A 39.951 39.951 0 0 0 499.903 132.4 A 33.06 33.06 0 0 0 510.1 121.504 A 36.141 36.141 0 0 0 512.081 117.512 A 28.503 28.503 0 0 0 514.4 106.404 A 22.071 22.071 0 0 0 513.862 101.358 A 12.89 12.89 0 0 0 507.6 92.704 A 33.461 33.461 0 0 0 503.131 90.588 Q 497.351 88.328 489.2 87.204 A 879.697 879.697 0 0 1 487.075 86.898 A 1011.553 1011.553 0 0 1 480.4 85.904 Q 475.8 85.204 472.7 83.604 Q 471.61 83.041 470.903 82.355 A 3.989 3.989 0 0 1 469.6 79.404 Q 469.6 77.303 471.683 75.765 A 10.32 10.32 0 0 1 473.3 74.804 A 14.894 14.894 0 0 1 475.614 73.919 Q 477.224 73.445 479.147 73.217 A 32.744 32.744 0 0 1 483 73.004 A 29.202 29.202 0 0 1 483.751 73.014 A 31.41 31.41 0 0 1 491.1 74.104 Q 495.2 75.204 498.6 78.004 Q 500.061 79.465 501.257 79.956 A 3.017 3.017 0 0 0 502.4 80.204 Q 504.6 80.204 507.9 78.304 Q 511.2 76.404 513.7 73.404 A 12.695 12.695 0 0 0 514.164 72.812 A 9.911 9.911 0 0 0 516.2 66.804 A 7.896 7.896 0 0 0 514.621 61.971 A 10.471 10.471 0 0 0 512.4 59.804 Q 508.6 57.004 502.8 55.604 Q 497 54.204 490.8 54.204 Q 485.453 54.204 480.845 55.148 A 34.585 34.585 0 0 0 470.8 58.804 Q 462.6 63.404 458.5 70.304 A 32.825 32.825 0 0 0 457.539 72.037 A 27.119 27.119 0 0 0 454.4 84.604 Q 454.4 88.107 455.25 90.824 A 12.386 12.386 0 0 0 458.4 96.104 Q 462.4 100.004 468.6 101.604 Q 474.8 103.204 481.4 104.404 A 254.315 254.315 0 0 1 485.792 105.081 Q 492.009 106.099 495.1 107.004 A 11.046 11.046 0 0 1 496.353 107.448 Q 499.2 108.67 499.2 111.004 A 4.52 4.52 0 0 1 497.742 114.313 Q 497.03 115.016 495.97 115.616 A 14.979 14.979 0 0 1 493.8 116.604 A 31.035 31.035 0 0 1 487.611 118.164 A 41.882 41.882 0 0 1 481.4 118.604 A 44.994 44.994 0 0 1 480.965 118.602 A 40.266 40.266 0 0 1 469.6 116.904 A 70.5 70.5 0 0 1 467.06 116.082 Q 463.147 114.73 460.4 113.204 A 12.277 12.277 0 0 0 460.287 113.148 Q 459.44 112.735 458.629 112.503 A 7.352 7.352 0 0 0 456.6 112.204 A 7.211 7.211 0 0 0 455.227 112.329 A 4.94 4.94 0 0 0 451.7 114.904 Q 450.2 117.604 450.2 120.604 A 15.579 15.579 0 0 0 450.201 120.778 A 13.08 13.08 0 0 0 454.2 130.204 Q 458.2 134.204 464.6 136.404 A 38.844 38.844 0 0 0 468.488 137.516 Z M 1074.088 137.516 A 43.924 43.924 0 0 0 1084 138.604 A 45.35 45.35 0 0 0 1091.65 137.984 A 33.811 33.811 0 0 0 1103.3 133.804 A 39.951 39.951 0 0 0 1105.503 132.4 A 33.06 33.06 0 0 0 1115.7 121.504 A 36.141 36.141 0 0 0 1117.681 117.512 A 28.503 28.503 0 0 0 1120 106.404 A 22.071 22.071 0 0 0 1119.462 101.358 A 12.89 12.89 0 0 0 1113.2 92.704 A 33.461 33.461 0 0 0 1108.731 90.588 Q 1102.951 88.328 1094.8 87.204 A 879.697 879.697 0 0 1 1092.675 86.898 A 1011.553 1011.553 0 0 1 1086 85.904 Q 1081.4 85.204 1078.3 83.604 Q 1077.21 83.041 1076.503 82.355 A 3.989 3.989 0 0 1 1075.2 79.404 Q 1075.2 77.303 1077.283 75.765 A 10.32 10.32 0 0 1 1078.9 74.804 A 14.894 14.894 0 0 1 1081.214 73.919 Q 1082.824 73.445 1084.747 73.217 A 32.744 32.744 0 0 1 1088.6 73.004 A 29.202 29.202 0 0 1 1089.351 73.014 A 31.41 31.41 0 0 1 1096.7 74.104 Q 1100.8 75.204 1104.2 78.004 Q 1105.661 79.465 1106.857 79.956 A 3.017 3.017 0 0 0 1108 80.204 Q 1110.2 80.204 1113.5 78.304 Q 1116.8 76.404 1119.3 73.404 A 12.695 12.695 0 0 0 1119.764 72.812 A 9.911 9.911 0 0 0 1121.8 66.804 A 7.896 7.896 0 0 0 1120.221 61.971 A 10.471 10.471 0 0 0 1118 59.804 Q 1114.2 57.004 1108.4 55.604 Q 1102.6 54.204 1096.4 54.204 Q 1091.053 54.204 1086.445 55.148 A 34.585 34.585 0 0 0 1076.4 58.804 Q 1068.2 63.404 1064.1 70.304 A 32.825 32.825 0 0 0 1063.139 72.037 A 27.119 27.119 0 0 0 1060 84.604 Q 1060 88.107 1060.85 90.824 A 12.386 12.386 0 0 0 1064 96.104 Q 1068 100.004 1074.2 101.604 Q 1080.4 103.204 1087 104.404 A 254.315 254.315 0 0 1 1091.392 105.081 Q 1097.609 106.099 1100.7 107.004 A 11.046 11.046 0 0 1 1101.953 107.448 Q 1104.8 108.67 1104.8 111.004 A 4.52 4.52 0 0 1 1103.342 114.313 Q 1102.63 115.016 1101.57 115.616 A 14.979 14.979 0 0 1 1099.4 116.604 A 31.035 31.035 0 0 1 1093.211 118.164 A 41.882 41.882 0 0 1 1087 118.604 A 44.994 44.994 0 0 1 1086.565 118.602 A 40.266 40.266 0 0 1 1075.2 116.904 A 70.5 70.5 0 0 1 1072.66 116.082 Q 1068.747 114.73 1066 113.204 A 12.277 12.277 0 0 0 1065.887 113.148 Q 1065.04 112.735 1064.229 112.503 A 7.352 7.352 0 0 0 1062.2 112.204 A 7.211 7.211 0 0 0 1060.827 112.329 A 4.94 4.94 0 0 0 1057.3 114.904 Q 1055.8 117.604 1055.8 120.604 A 15.579 15.579 0 0 0 1055.801 120.778 A 13.08 13.08 0 0 0 1059.8 130.204 Q 1063.8 134.204 1070.2 136.404 A 38.844 38.844 0 0 0 1074.088 137.516 Z M 1390.8 138.604 Q 1375.6 138.604 1367.1 129.904 A 28.579 28.579 0 0 1 1359.949 116.94 Q 1358.769 112.46 1358.621 107.141 A 55.406 55.406 0 0 1 1358.6 105.604 A 56.234 56.234 0 0 1 1361.27 88.086 A 51.115 51.115 0 0 1 1364.8 79.804 Q 1371 68.204 1381.5 61.304 Q 1392 54.404 1404.6 54.404 A 39.615 39.615 0 0 1 1412.605 55.166 Q 1419.188 56.524 1423.8 60.304 A 18.989 18.989 0 0 1 1430.936 74.196 A 25.262 25.262 0 0 1 1431 76.004 Q 1431 83.804 1426.2 90.404 A 33.011 33.011 0 0 1 1415.822 99.619 A 39.633 39.633 0 0 1 1413.4 100.904 A 38.909 38.909 0 0 1 1399.212 104.667 A 46.866 46.866 0 0 1 1395.6 104.804 Q 1385.241 104.804 1378.16 100.78 A 25.378 25.378 0 0 1 1376 99.404 A 23.031 23.031 0 0 0 1377.177 106.405 A 18.651 18.651 0 0 0 1382.3 114.204 Q 1388.4 119.804 1398 119.804 A 34.978 34.978 0 0 0 1406.869 118.623 A 41.755 41.755 0 0 0 1409.9 117.704 Q 1416 115.604 1420.4 112.004 A 13.873 13.873 0 0 1 1422.027 110.79 Q 1422.911 110.234 1423.751 109.939 A 5.558 5.558 0 0 1 1425.6 109.604 A 5.034 5.034 0 0 1 1427.242 109.862 A 4.286 4.286 0 0 1 1428.9 110.904 A 4.391 4.391 0 0 1 1430.189 113.835 A 5.865 5.865 0 0 1 1430.2 114.204 Q 1430.2 118.572 1422.71 125.699 A 68.06 68.06 0 0 1 1422.6 125.804 Q 1409.2 138.604 1390.8 138.604 Z M 668.018 137.53 A 37.058 37.058 0 0 0 677.2 138.604 Q 685.6 138.604 693.9 135.704 A 55.07 55.07 0 0 0 695.451 135.136 Q 698.746 133.873 701.479 132.32 A 31.077 31.077 0 0 0 707.2 128.204 A 29.991 29.991 0 0 0 708.578 126.871 Q 710.521 124.863 711.741 122.79 A 14.001 14.001 0 0 0 713.8 115.604 Q 713.8 110.604 709.8 110.604 A 5.753 5.753 0 0 0 709.752 110.604 Q 708.24 110.617 706.807 111.425 A 8.906 8.906 0 0 0 705.2 112.604 A 30.541 30.541 0 0 1 702.323 114.457 A 34.545 34.545 0 0 1 695.1 117.504 A 51.309 51.309 0 0 1 694.928 117.555 Q 692.259 118.341 689.789 118.752 A 31.617 31.617 0 0 1 684.6 119.204 A 25.824 25.824 0 0 1 681.813 119.057 A 18.608 18.608 0 0 1 669.8 113.204 A 20.053 20.053 0 0 1 665.021 104.35 A 27.868 27.868 0 0 1 664.2 97.404 A 32.31 32.31 0 0 1 664.69 91.653 A 22.883 22.883 0 0 1 670.4 79.904 A 20.164 20.164 0 0 1 678.514 74.486 A 23.34 23.34 0 0 1 686.4 73.204 A 27.872 27.872 0 0 1 689.405 73.356 Q 693.084 73.756 695.4 75.204 Q 698.6 77.204 700.6 79.404 Q 701.8 80.804 703.6 80.804 Q 704.8 80.804 706.731 79.96 A 23.29 23.29 0 0 0 708.1 79.304 Q 711 77.804 712.8 76.004 Q 717.6 71.204 717.6 66.204 Q 717.6 60.604 712 57.404 A 20.405 20.405 0 0 0 708.076 55.706 Q 703.377 54.204 696.8 54.204 Q 682.6 54.204 671.4 61.004 Q 660.2 67.804 653.8 79.604 A 51.022 51.022 0 0 0 649.397 90.645 A 60.123 60.123 0 0 0 647.4 106.404 A 55.355 55.355 0 0 0 647.455 108.903 Q 648.062 122.316 655.3 130.104 A 25.597 25.597 0 0 0 668.018 137.53 Z M 93.542 137.459 A 31.162 31.162 0 0 0 102.2 138.604 Q 113.4 138.604 121.7 132.404 A 46.486 46.486 0 0 0 126.373 128.405 A 51.155 51.155 0 0 0 135.4 116.404 A 45.13 45.13 0 0 0 135.65 121.283 Q 136.424 128.394 139.6 132.704 A 13.324 13.324 0 0 0 146.459 137.668 A 17.053 17.053 0 0 0 151.6 138.404 A 22.023 22.023 0 0 0 153.571 138.319 Q 155.372 138.157 156.863 137.686 A 10.079 10.079 0 0 0 160.5 135.704 A 16.526 16.526 0 0 0 162.125 134.084 A 12.811 12.811 0 0 0 164.7 129.604 Q 165.422 127.373 165.67 125.658 A 11.612 11.612 0 0 0 165.8 124.004 A 10.764 10.764 0 0 0 165.783 123.378 Q 165.712 122.175 165.36 121.434 A 2.134 2.134 0 0 0 164.7 120.604 Q 164.013 120.104 163.052 119.76 A 10.447 10.447 0 0 0 161.8 119.404 A 15.997 15.997 0 0 1 159.584 118.785 A 11.113 11.113 0 0 1 152.7 112.104 A 32.374 32.374 0 0 1 150.957 105.673 A 42.82 42.82 0 0 1 150.4 98.604 Q 150.4 94.604 150.8 90.604 Q 151.2 86.604 152 82.404 Q 154.2 83.004 155 83.004 A 4.757 4.757 0 0 0 155.291 82.995 A 3.564 3.564 0 0 0 157.9 81.704 Q 159 80.404 159.6 78.804 A 17.122 17.122 0 0 0 159.972 77.504 Q 160.148 76.795 160.301 75.968 A 40.54 40.54 0 0 0 160.6 74.104 A 67.917 67.917 0 0 0 160.635 73.849 Q 160.881 72.015 160.961 70.636 A 21.293 21.293 0 0 0 161 69.404 Q 161 64.236 156.367 60.649 A 21.695 21.695 0 0 0 152.5 58.304 A 34.939 34.939 0 0 0 150.811 57.544 Q 142.831 54.204 132 54.204 A 64.886 64.886 0 0 0 124.797 54.594 A 52.205 52.205 0 0 0 108.6 59.004 Q 98.2 63.804 90.8 71.804 Q 83.4 79.804 79.5 89.704 A 61.068 61.068 0 0 0 79.028 90.942 A 53.558 53.558 0 0 0 75.6 109.604 A 49.645 49.645 0 0 0 75.694 112.692 Q 75.975 117.2 77.099 120.957 A 24.225 24.225 0 0 0 82.9 131.104 A 23.79 23.79 0 0 0 93.542 137.459 Z M 367.342 137.459 A 31.162 31.162 0 0 0 376 138.604 Q 387.2 138.604 395.5 132.404 A 46.486 46.486 0 0 0 400.173 128.405 A 51.155 51.155 0 0 0 409.2 116.404 A 45.13 45.13 0 0 0 409.45 121.283 Q 410.224 128.394 413.4 132.704 A 13.324 13.324 0 0 0 420.259 137.668 A 17.053 17.053 0 0 0 425.4 138.404 A 22.023 22.023 0 0 0 427.371 138.319 Q 429.172 138.157 430.663 137.686 A 10.079 10.079 0 0 0 434.3 135.704 A 16.526 16.526 0 0 0 435.925 134.084 A 12.811 12.811 0 0 0 438.5 129.604 Q 439.222 127.373 439.47 125.658 A 11.612 11.612 0 0 0 439.6 124.004 A 10.764 10.764 0 0 0 439.583 123.378 Q 439.512 122.175 439.16 121.434 A 2.134 2.134 0 0 0 438.5 120.604 Q 437.813 120.104 436.852 119.76 A 10.447 10.447 0 0 0 435.6 119.404 A 15.997 15.997 0 0 1 433.384 118.785 A 11.113 11.113 0 0 1 426.5 112.104 A 32.374 32.374 0 0 1 424.757 105.673 A 42.82 42.82 0 0 1 424.2 98.604 Q 424.2 94.604 424.6 90.604 Q 425 86.604 425.8 82.404 Q 428 83.004 428.8 83.004 A 4.757 4.757 0 0 0 429.091 82.995 A 3.564 3.564 0 0 0 431.7 81.704 Q 432.8 80.404 433.4 78.804 A 17.122 17.122 0 0 0 433.772 77.504 Q 433.948 76.795 434.101 75.968 A 40.54 40.54 0 0 0 434.4 74.104 A 67.917 67.917 0 0 0 434.435 73.849 Q 434.681 72.015 434.761 70.636 A 21.293 21.293 0 0 0 434.8 69.404 Q 434.8 64.236 430.167 60.649 A 21.695 21.695 0 0 0 426.3 58.304 A 34.939 34.939 0 0 0 424.611 57.544 Q 416.631 54.204 405.8 54.204 A 64.886 64.886 0 0 0 398.597 54.594 A 52.205 52.205 0 0 0 382.4 59.004 Q 372 63.804 364.6 71.804 Q 357.2 79.804 353.3 89.704 A 61.068 61.068 0 0 0 352.828 90.942 A 53.558 53.558 0 0 0 349.4 109.604 A 49.645 49.645 0 0 0 349.494 112.692 Q 349.775 117.2 350.899 120.957 A 24.225 24.225 0 0 0 356.7 131.104 A 23.79 23.79 0 0 0 367.342 137.459 Z M 307.964 137.89 A 28.794 28.794 0 0 0 314.6 138.604 Q 324.4 138.604 331.2 134.004 A 19.473 19.473 0 0 0 334.638 131.096 A 11.913 11.913 0 0 0 338 122.804 A 8.846 8.846 0 0 0 337.908 121.48 Q 337.641 119.722 336.6 118.904 A 3.517 3.517 0 0 0 336.017 118.536 Q 335.017 118.028 333.375 117.873 A 16.746 16.746 0 0 0 331.8 117.804 Q 320.8 117.804 315 113.604 Q 309.2 109.404 309.2 97.804 A 50.808 50.808 0 0 1 309.209 96.88 Q 309.254 94.358 309.548 91.543 A 86.35 86.35 0 0 1 310.3 86.104 Q 311.4 79.604 312.8 73.404 A 94.872 94.872 0 0 1 315.214 73.434 Q 319.291 73.537 322.4 74.004 A 132.943 132.943 0 0 1 324.819 74.388 Q 327.233 74.796 329 75.204 Q 331 75.604 332.4 75.804 Q 333.8 76.004 334.4 76.004 A 3.339 3.339 0 0 0 335.878 75.653 Q 337.822 74.706 339.5 71.204 Q 341.8 66.404 341.8 61.604 A 13.593 13.593 0 0 0 341.677 59.708 Q 341.245 56.648 339.3 55.404 A 8.569 8.569 0 0 0 337.298 54.482 Q 335.194 53.804 332.2 53.804 A 44.601 44.601 0 0 0 330.374 53.842 A 51.08 51.08 0 0 0 324.7 54.404 Q 320.8 55.004 317 55.804 Q 317.4 53.604 317.7 51.504 A 31.619 31.619 0 0 0 317.736 51.242 A 28.815 28.815 0 0 0 318 47.404 A 23.859 23.859 0 0 0 317.983 46.476 Q 317.872 43.643 317.065 42.012 A 3.629 3.629 0 0 0 313.6 39.804 Q 311.005 39.804 307.632 41.726 A 29.811 29.811 0 0 0 304.9 43.504 A 64.251 64.251 0 0 0 300.358 47.136 A 82.297 82.297 0 0 0 294.7 52.604 A 77.903 77.903 0 0 0 291.114 56.668 A 63.101 63.101 0 0 0 286.2 63.504 A 40.168 40.168 0 0 0 285.84 64.098 Q 282.8 69.211 282.8 72.804 A 5.06 5.06 0 0 0 282.847 73.51 Q 283.255 76.404 287.2 76.404 Q 291.4 76.404 295.6 75.204 A 195.672 195.672 0 0 1 295.33 77.618 A 229.184 229.184 0 0 1 294.6 83.204 Q 294 87.404 293.4 91.804 Q 292.8 96.204 292.3 100.604 Q 291.8 105.004 291.8 109.604 Q 291.8 115.904 293.084 121.065 A 30.564 30.564 0 0 0 297.1 130.504 Q 300.827 136.199 307.964 137.89 Z M 554.164 137.89 A 28.794 28.794 0 0 0 560.8 138.604 Q 570.6 138.604 577.4 134.004 A 19.473 19.473 0 0 0 580.838 131.096 A 11.913 11.913 0 0 0 584.2 122.804 A 8.846 8.846 0 0 0 584.108 121.48 Q 583.841 119.722 582.8 118.904 A 3.517 3.517 0 0 0 582.217 118.536 Q 581.217 118.028 579.575 117.873 A 16.746 16.746 0 0 0 578 117.804 Q 567 117.804 561.2 113.604 Q 555.4 109.404 555.4 97.804 A 50.808 50.808 0 0 1 555.409 96.88 Q 555.454 94.358 555.748 91.543 A 86.35 86.35 0 0 1 556.5 86.104 Q 557.6 79.604 559 73.404 A 94.872 94.872 0 0 1 561.414 73.434 Q 565.491 73.537 568.6 74.004 A 132.943 132.943 0 0 1 571.019 74.388 Q 573.433 74.796 575.2 75.204 Q 577.2 75.604 578.6 75.804 Q 580 76.004 580.6 76.004 A 3.339 3.339 0 0 0 582.078 75.653 Q 584.022 74.706 585.7 71.204 Q 588 66.404 588 61.604 A 13.593 13.593 0 0 0 587.877 59.708 Q 587.445 56.648 585.5 55.404 A 8.569 8.569 0 0 0 583.498 54.482 Q 581.394 53.804 578.4 53.804 A 44.601 44.601 0 0 0 576.574 53.842 A 51.08 51.08 0 0 0 570.9 54.404 Q 567 55.004 563.2 55.804 Q 563.6 53.604 563.9 51.504 A 31.619 31.619 0 0 0 563.936 51.242 A 28.815 28.815 0 0 0 564.2 47.404 A 23.859 23.859 0 0 0 564.183 46.476 Q 564.072 43.643 563.265 42.012 A 3.629 3.629 0 0 0 559.8 39.804 Q 557.205 39.804 553.832 41.726 A 29.811 29.811 0 0 0 551.1 43.504 A 64.251 64.251 0 0 0 546.558 47.136 A 82.297 82.297 0 0 0 540.9 52.604 A 77.903 77.903 0 0 0 537.314 56.668 A 63.101 63.101 0 0 0 532.4 63.504 A 40.168 40.168 0 0 0 532.04 64.098 Q 529 69.211 529 72.804 A 5.06 5.06 0 0 0 529.047 73.51 Q 529.455 76.404 533.4 76.404 Q 537.6 76.404 541.8 75.204 A 195.672 195.672 0 0 1 541.53 77.618 A 229.184 229.184 0 0 1 540.8 83.204 Q 540.2 87.404 539.6 91.804 Q 539 96.204 538.5 100.604 Q 538 105.004 538 109.604 Q 538 115.904 539.284 121.065 A 30.564 30.564 0 0 0 543.3 130.504 Q 547.027 136.199 554.164 137.89 Z M 1159.764 137.89 A 28.794 28.794 0 0 0 1166.4 138.604 Q 1176.2 138.604 1183 134.004 A 19.473 19.473 0 0 0 1186.438 131.096 A 11.913 11.913 0 0 0 1189.8 122.804 A 8.846 8.846 0 0 0 1189.708 121.48 Q 1189.441 119.722 1188.4 118.904 A 3.517 3.517 0 0 0 1187.817 118.536 Q 1186.817 118.028 1185.175 117.873 A 16.746 16.746 0 0 0 1183.6 117.804 Q 1172.6 117.804 1166.8 113.604 Q 1161 109.404 1161 97.804 A 50.808 50.808 0 0 1 1161.009 96.88 Q 1161.054 94.358 1161.348 91.543 A 86.35 86.35 0 0 1 1162.1 86.104 Q 1163.2 79.604 1164.6 73.404 A 94.872 94.872 0 0 1 1167.014 73.434 Q 1171.091 73.537 1174.2 74.004 A 132.943 132.943 0 0 1 1176.619 74.388 Q 1179.033 74.796 1180.8 75.204 Q 1182.8 75.604 1184.2 75.804 Q 1185.6 76.004 1186.2 76.004 A 3.339 3.339 0 0 0 1187.678 75.653 Q 1189.622 74.706 1191.3 71.204 Q 1193.6 66.404 1193.6 61.604 A 13.593 13.593 0 0 0 1193.477 59.708 Q 1193.045 56.648 1191.1 55.404 A 8.569 8.569 0 0 0 1189.098 54.482 Q 1186.994 53.804 1184 53.804 A 44.601 44.601 0 0 0 1182.174 53.842 A 51.08 51.08 0 0 0 1176.5 54.404 Q 1172.6 55.004 1168.8 55.804 Q 1169.2 53.604 1169.5 51.504 A 31.619 31.619 0 0 0 1169.536 51.242 A 28.815 28.815 0 0 0 1169.8 47.404 A 23.859 23.859 0 0 0 1169.783 46.476 Q 1169.672 43.643 1168.865 42.012 A 3.629 3.629 0 0 0 1165.4 39.804 Q 1162.805 39.804 1159.432 41.726 A 29.811 29.811 0 0 0 1156.7 43.504 A 64.251 64.251 0 0 0 1152.158 47.136 A 82.297 82.297 0 0 0 1146.5 52.604 A 77.903 77.903 0 0 0 1142.914 56.668 A 63.101 63.101 0 0 0 1138 63.504 A 40.168 40.168 0 0 0 1137.64 64.098 Q 1134.6 69.211 1134.6 72.804 A 5.06 5.06 0 0 0 1134.647 73.51 Q 1135.055 76.404 1139 76.404 Q 1143.2 76.404 1147.4 75.204 A 195.672 195.672 0 0 1 1147.13 77.618 A 229.184 229.184 0 0 1 1146.4 83.204 Q 1145.8 87.404 1145.2 91.804 Q 1144.6 96.204 1144.1 100.604 Q 1143.6 105.004 1143.6 109.604 Q 1143.6 115.904 1144.884 121.065 A 30.564 30.564 0 0 0 1148.9 130.504 Q 1152.627 136.199 1159.764 137.89 Z M 1307.4 138.204 Q 1304.2 138.204 1302.3 137.104 A 2.952 2.952 0 0 1 1301.358 136.272 Q 1300.587 135.193 1301 133.404 Q 1303.2 124.804 1304.7 115.904 A 107.192 107.192 0 0 0 1306.081 103.472 A 93.022 93.022 0 0 0 1306.2 98.804 A 140.181 140.181 0 0 0 1306.119 93.86 Q 1305.943 88.908 1305.389 85.616 A 25.724 25.724 0 0 0 1304.9 83.304 Q 1303.6 78.404 1301.4 76.504 A 13.904 13.904 0 0 0 1298.082 74.398 A 17.558 17.558 0 0 0 1296 73.604 Q 1294.6 73.004 1293.5 72.004 A 3.267 3.267 0 0 1 1292.497 70.202 A 4.877 4.877 0 0 1 1292.4 69.204 Q 1292.4 66.999 1293.765 64.421 A 18.856 18.856 0 0 1 1294.6 63.004 A 18.059 18.059 0 0 1 1298.263 58.929 A 23.219 23.219 0 0 1 1300.8 57.104 A 16.506 16.506 0 0 1 1308.248 54.678 A 20.432 20.432 0 0 1 1310 54.604 A 15.366 15.366 0 0 1 1313.501 54.976 Q 1315.911 55.54 1317.574 56.96 A 8.839 8.839 0 0 1 1319.5 59.304 A 18.463 18.463 0 0 1 1321.346 63.971 Q 1322.2 67.329 1322.2 71.604 Q 1325.8 63.604 1331.1 58.904 A 18.508 18.508 0 0 1 1341.436 54.376 A 24.821 24.821 0 0 1 1344.4 54.204 Q 1349.8 54.204 1353.4 56.604 A 7.742 7.742 0 0 1 1356.683 61.462 A 12.757 12.757 0 0 1 1357 64.404 A 16.297 16.297 0 0 1 1354.224 73.467 A 20.428 20.428 0 0 1 1353.5 74.504 Q 1350 79.204 1346.4 79.204 Q 1345.934 79.204 1345.346 79.083 A 8.461 8.461 0 0 1 1345 79.004 A 2.269 2.269 0 0 1 1344.039 78.485 A 3.221 3.221 0 0 1 1343.6 78.004 A 9.287 9.287 0 0 0 1341.386 75.992 A 7.641 7.641 0 0 0 1337.2 74.804 Q 1332.534 74.804 1328.774 79.723 A 25.218 25.218 0 0 0 1327 82.404 Q 1323.846 87.852 1322.747 96.279 A 71.79 71.79 0 0 0 1322.2 103.404 Q 1322.4 108.404 1322.5 113.604 Q 1322.596 118.61 1322.6 121.021 A 122.815 122.815 0 0 1 1322.6 121.204 A 21.935 21.935 0 0 1 1321.923 126.787 A 16.487 16.487 0 0 1 1318.5 133.404 A 13.45 13.45 0 0 1 1309.105 138.129 A 18.933 18.933 0 0 1 1307.4 138.204 Z M 853.407 137.593 A 41.227 41.227 0 0 0 862.8 138.604 A 50.359 50.359 0 0 0 868.417 138.298 A 39.92 39.92 0 0 0 885.9 132.204 Q 895.8 125.804 901.4 114.904 A 49.047 49.047 0 0 0 904.813 106.377 A 55.369 55.369 0 0 0 907 90.604 A 60.305 60.305 0 0 0 906.977 88.942 Q 906.819 83.19 905.55 78.326 A 31.494 31.494 0 0 0 897.5 63.804 A 29.367 29.367 0 0 0 894.155 60.897 Q 885.161 54.204 870.8 54.204 A 72.454 72.454 0 0 0 869.69 54.212 Q 864.362 54.294 859.693 55.165 A 42.165 42.165 0 0 0 849.2 58.504 A 129.258 129.258 0 0 0 847.5 59.331 Q 839.793 63.153 836 66.404 Q 834.2 67.804 832.3 70.504 Q 830.4 73.204 830.4 77.804 A 15.35 15.35 0 0 0 830.479 79.356 A 17.399 17.399 0 0 0 831.3 83.104 Q 831.848 84.749 832.954 85.392 A 3.216 3.216 0 0 0 834.6 85.804 Q 835.825 85.804 837.988 84.632 A 26.572 26.572 0 0 0 839.4 83.804 Q 836.2 89.404 834.3 95.804 Q 832.4 102.204 832.4 109.004 Q 832.4 123.604 840.7 131.104 A 28.134 28.134 0 0 0 853.407 137.593 Z M 1226.407 137.593 A 41.227 41.227 0 0 0 1235.8 138.604 A 50.359 50.359 0 0 0 1241.417 138.298 A 39.92 39.92 0 0 0 1258.9 132.204 Q 1268.8 125.804 1274.4 114.904 A 49.047 49.047 0 0 0 1277.813 106.377 A 55.369 55.369 0 0 0 1280 90.604 A 60.305 60.305 0 0 0 1279.977 88.942 Q 1279.819 83.19 1278.55 78.326 A 31.494 31.494 0 0 0 1270.5 63.804 A 29.367 29.367 0 0 0 1267.155 60.897 Q 1258.161 54.204 1243.8 54.204 A 72.454 72.454 0 0 0 1242.69 54.212 Q 1237.362 54.294 1232.693 55.165 A 42.165 42.165 0 0 0 1222.2 58.504 A 129.258 129.258 0 0 0 1220.5 59.331 Q 1212.793 63.153 1209 66.404 Q 1207.2 67.804 1205.3 70.504 Q 1203.4 73.204 1203.4 77.804 A 15.35 15.35 0 0 0 1203.479 79.356 A 17.399 17.399 0 0 0 1204.3 83.104 Q 1204.848 84.749 1205.954 85.392 A 3.216 3.216 0 0 0 1207.6 85.804 Q 1208.825 85.804 1210.988 84.632 A 26.572 26.572 0 0 0 1212.4 83.804 Q 1209.2 89.404 1207.3 95.804 Q 1205.4 102.204 1205.4 109.004 Q 1205.4 123.604 1213.7 131.104 A 28.134 28.134 0 0 0 1226.407 137.593 Z M 615.6 138.004 Q 609.6 138.004 606.2 134.704 A 9.432 9.432 0 0 1 604.063 131.409 Q 602.892 128.506 602.807 124.102 A 36.205 36.205 0 0 1 602.8 123.404 Q 602.8 118.804 603.7 114.404 Q 604.6 110.004 605.8 105.804 Q 607.2 101.404 608.1 96.804 Q 609 92.204 609 87.004 A 23.662 23.662 0 0 0 608 80.104 Q 607 76.804 603.6 75.204 Q 601 73.804 599.1 72.304 Q 597.216 70.816 597.2 68.444 A 6.04 6.04 0 0 1 597.2 68.404 Q 597.2 65.604 599.8 62.404 A 20.169 20.169 0 0 1 603.6 58.838 A 26.321 26.321 0 0 1 606.7 56.904 A 19.015 19.015 0 0 1 613.46 54.73 A 18.091 18.091 0 0 1 615.6 54.604 Q 618.777 54.604 620.864 55.654 A 6.71 6.71 0 0 1 622.9 57.204 A 12.708 12.708 0 0 1 625.273 61.219 A 16.751 16.751 0 0 1 626 63.804 Q 626.8 67.804 626.8 72.004 Q 626.8 78.404 625.8 84.504 Q 624.8 90.604 623.8 95.804 Q 623 99.604 622.6 102.804 A 52.886 52.886 0 0 0 622.266 106.463 A 42.763 42.763 0 0 0 622.2 108.804 A 16.587 16.587 0 0 0 622.423 111.619 Q 622.931 114.566 624.6 116.304 A 17.98 17.98 0 0 0 626.88 118.286 Q 628.072 119.168 629.54 120.009 A 37.158 37.158 0 0 0 631.4 121.004 A 3.793 3.793 0 0 1 632.443 121.831 Q 633.129 122.625 633.193 123.764 A 4.25 4.25 0 0 1 633.2 124.004 A 4.945 4.945 0 0 1 633.087 124.981 Q 632.877 126.006 632.278 127.47 A 32.888 32.888 0 0 1 631.6 129.004 A 13.804 13.804 0 0 1 629.273 132.423 Q 628.111 133.697 626.556 134.868 A 24.508 24.508 0 0 1 626.1 135.204 A 13.808 13.808 0 0 1 621.709 137.254 Q 619.016 138.004 615.6 138.004 Z M 108.6 117.804 Q 116.6 117.804 122.7 112.804 A 33.86 33.86 0 0 0 132.093 100.441 A 39.174 39.174 0 0 0 132.2 100.204 Q 134.4 95.404 135.6 89.704 Q 136.8 84.004 137.2 78.404 A 33.797 33.797 0 0 0 133.12 76.813 A 44.559 44.559 0 0 0 129.4 75.804 Q 125 74.804 120.2 74.804 A 33.853 33.853 0 0 0 110.712 76.073 A 26.549 26.549 0 0 0 100.1 82.004 A 23.223 23.223 0 0 0 92.224 98.833 A 28.749 28.749 0 0 0 92.2 100.004 A 23.689 23.689 0 0 0 92.819 105.568 A 16.609 16.609 0 0 0 96.6 112.904 A 14.48 14.48 0 0 0 105.536 117.586 A 20.748 20.748 0 0 0 108.6 117.804 Z M 382.4 117.804 Q 390.4 117.804 396.5 112.804 A 33.86 33.86 0 0 0 405.893 100.441 A 39.174 39.174 0 0 0 406 100.204 Q 408.2 95.404 409.4 89.704 Q 410.6 84.004 411 78.404 A 33.797 33.797 0 0 0 406.92 76.813 A 44.559 44.559 0 0 0 403.2 75.804 Q 398.8 74.804 394 74.804 A 33.853 33.853 0 0 0 384.512 76.073 A 26.549 26.549 0 0 0 373.9 82.004 A 23.223 23.223 0 0 0 366.024 98.833 A 28.749 28.749 0 0 0 366 100.004 A 23.689 23.689 0 0 0 366.619 105.568 A 16.609 16.609 0 0 0 370.4 112.904 A 14.48 14.48 0 0 0 379.336 117.586 A 20.748 20.748 0 0 0 382.4 117.804 Z M 869 118.204 Q 879 118.204 885.9 111.904 A 20.855 20.855 0 0 0 892.664 98.048 A 28.927 28.927 0 0 0 892.8 95.204 A 26.059 26.059 0 0 0 892.199 89.408 Q 890.749 83.056 885.8 79.804 A 28.079 28.079 0 0 0 872.421 75.316 A 34.87 34.87 0 0 0 869.6 75.204 Q 865.4 75.204 862 76.004 A 45.899 45.899 0 0 0 856.739 77.568 A 40.958 40.958 0 0 0 855.6 78.004 Q 852.8 82.004 850.6 87.004 A 26.257 26.257 0 0 0 848.477 95.789 A 31.282 31.282 0 0 0 848.4 98.004 A 26.49 26.49 0 0 0 849.031 103.973 Q 849.986 108.103 852.387 111.052 A 15.714 15.714 0 0 0 854.4 113.104 A 21.337 21.337 0 0 0 867.085 118.138 A 27.594 27.594 0 0 0 869 118.204 Z M 1242 118.204 Q 1252 118.204 1258.9 111.904 A 20.855 20.855 0 0 0 1265.664 98.048 A 28.927 28.927 0 0 0 1265.8 95.204 A 26.059 26.059 0 0 0 1265.199 89.408 Q 1263.749 83.056 1258.8 79.804 A 28.079 28.079 0 0 0 1245.421 75.316 A 34.87 34.87 0 0 0 1242.6 75.204 Q 1238.4 75.204 1235 76.004 A 45.899 45.899 0 0 0 1229.739 77.568 A 40.958 40.958 0 0 0 1228.6 78.004 Q 1225.8 82.004 1223.6 87.004 A 26.257 26.257 0 0 0 1221.477 95.789 A 31.282 31.282 0 0 0 1221.4 98.004 A 26.49 26.49 0 0 0 1222.031 103.973 Q 1222.986 108.103 1225.387 111.052 A 15.714 15.714 0 0 0 1227.4 113.104 A 21.337 21.337 0 0 0 1240.085 118.138 A 27.594 27.594 0 0 0 1242 118.204 Z M 776.2 117.004 A 28.927 28.927 0 0 0 783.423 116.153 A 19.877 19.877 0 0 0 793.8 109.804 Q 800 102.604 800 93.204 A 23.982 23.982 0 0 0 799.492 88.112 Q 798.778 84.828 797.062 82.368 A 13.801 13.801 0 0 0 795.5 80.504 A 15.107 15.107 0 0 0 786.962 76.259 A 21.292 21.292 0 0 0 783.6 76.004 Q 776.2 76.004 770.4 80.504 A 35.39 35.39 0 0 0 763.063 88.318 A 43.776 43.776 0 0 0 760.6 92.304 Q 756.6 99.604 754.4 108.004 Q 759 112.404 764.7 114.704 A 30.808 30.808 0 0 0 774.752 116.968 A 29.189 29.189 0 0 0 776.2 117.004 Z M 611.37 35.993 A 16.647 16.647 0 0 0 615.4 36.604 A 18.122 18.122 0 0 0 618.482 36.352 A 12.66 12.66 0 0 0 625.6 32.704 Q 629.4 28.804 629.6 22.804 A 18.989 18.989 0 0 0 629.611 22.15 Q 629.611 20.401 629.276 18.902 A 9.937 9.937 0 0 0 626.5 13.804 Q 624.38 11.748 621.227 10.93 A 17.661 17.661 0 0 0 617.4 10.404 A 18.599 18.599 0 0 0 616.8 10.394 Q 616.212 10.394 615.644 10.432 A 12.936 12.936 0 0 0 607.2 14.104 A 13.359 13.359 0 0 0 603.888 19.26 A 16.267 16.267 0 0 0 603 24.204 Q 603 30.004 606.4 33.204 A 11.973 11.973 0 0 0 611.37 35.993 Z M 1020.723 137.187 A 14.17 14.17 0 0 0 1025 137.804 A 16.844 16.844 0 0 0 1025.539 137.795 A 12.734 12.734 0 0 0 1034.6 133.904 Q 1038.4 130.004 1038.4 124.004 A 16.099 16.099 0 0 0 1038.201 121.42 A 11.409 11.409 0 0 0 1035 115.004 A 11.147 11.147 0 0 0 1030.002 112.112 A 14.961 14.961 0 0 0 1026 111.604 A 17.442 17.442 0 0 0 1024.179 111.697 A 12.817 12.817 0 0 0 1016.2 115.404 Q 1012.4 119.204 1012.4 125.004 A 16.532 16.532 0 0 0 1012.485 126.705 A 12.233 12.233 0 0 0 1015.9 134.204 A 11.418 11.418 0 0 0 1020.723 137.187 Z M 1393.8 91.604 A 28.595 28.595 0 0 0 1399.059 91.146 Q 1402.219 90.555 1404.768 89.199 A 17.037 17.037 0 0 0 1405.8 88.604 A 12.869 12.869 0 0 0 1408.227 86.682 A 7.9 7.9 0 0 0 1410.6 81.004 A 7.164 7.164 0 0 0 1410.03 78.1 Q 1409.348 76.541 1407.846 75.416 A 8.789 8.789 0 0 0 1407.4 75.104 Q 1404.2 73.004 1398.6 73.004 A 23.636 23.636 0 0 0 1391.299 74.096 A 20.527 20.527 0 0 0 1385.7 76.904 A 20.941 20.941 0 0 0 1378.536 85.896 A 26.378 26.378 0 0 0 1377.8 87.804 Q 1380.6 89.604 1385 90.604 Q 1389.4 91.604 1393.8 91.604 Z" vector-effect="non-scaling-stroke"/></g></svg>