<svg xmlns="http://www.w3.org/2000/svg" version="1.1" xmlns:xlink="http://www.w3.org/1999/xlink" xmlns:svgjs="http://svgjs.dev/svgjs" width="128" height="128" viewBox="0 0 128 128"><g transform="matrix(0.8046875,0,0,0.8046875,12.28985335315943,28.114260799015348)"><svg viewBox="0 0 96 67" data-background-color="#fafafa" preserveAspectRatio="xMidYMid meet" height="89" width="128" xmlns="http://www.w3.org/2000/svg" xmlns:xlink="http://www.w3.org/1999/xlink"><g id="tight-bounds" transform="matrix(1,0,0,1,0.25676866179580315,0.07217185422105388)"><svg viewBox="0 0 95.481 66.55374619959703" height="66.55374619959703" width="95.481"><g><svg viewBox="0 0 95.481 66.55374619959703" height="66.55374619959703" width="95.481"><g><svg viewBox="0 0 95.481 66.55374619959703" height="66.55374619959703" width="95.481"><g id="textblocktransform"><svg viewBox="0 0 95.481 66.55374619959703" height="66.55374619959703" width="95.481" id="textblock"><g><svg viewBox="0 0 95.481 66.55374619959703" height="66.55374619959703" width="95.481"><g><svg viewBox="0 0 95.481 66.55374619959703" height="66.55374619959703" width="95.481"><g><svg xmlns="http://www.w3.org/2000/svg" xml:space="preserve" viewBox="16.741 29.523000000000003 66.51731597081465 46.365" x="0" y="0" height="66.55374619959703" width="95.481" class="icon-icon-0" data-fill-palette-color="accent" id="icon-0"><path d="M57.913 75.888H42.085a2.11 2.11 0 0 1-2.094-1.872c-0.824-7.297-4.622-12.981-11.288-16.891-5.131-3.012-10.121-3.806-10.171-3.811a2.114 2.114 0 0 1-1.791-2.085v-19.6c0-1.164 0.943-2.106 2.106-2.106H81.15c1.164 0 2.108 0.942 2.108 2.106v19.6a2.11 2.11 0 0 1-1.795 2.085c-0.047 0.005-5.037 0.799-10.168 3.811-6.666 3.909-10.465 9.594-11.288 16.891a2.11 2.11 0 0 1-2.094 1.872m-14.006-4.217h12.187c1.4-7.753 5.935-14.041 13.201-18.259 3.883-2.256 7.622-3.385 9.748-3.897V33.737H20.956v15.777c2.125 0.513 5.866 1.642 9.749 3.897 7.266 4.219 11.801 10.507 13.202 18.26" fill="#e77917" data-fill-palette-color="accent"></path><path d="M42.085 75.888c-0.246 0-0.498-0.044-0.742-0.137-12.822-4.835-23.831-22.667-24.293-23.423a2.108 2.108 0 0 1 3.596-2.197c0.106 0.173 10.72 17.354 22.183 21.676a2.11 2.11 0 0 1-0.744 4.081M57.914 75.888a2.11 2.11 0 0 1-1.973-1.364 2.11 2.11 0 0 1 1.229-2.717c11.463-4.322 22.077-21.503 22.183-21.676a2.106 2.106 0 1 1 3.596 2.197c-0.463 0.756-11.47 18.588-24.292 23.423a2.1 2.1 0 0 1-0.743 0.137M36.142 62.511a2.108 2.108 0 0 1-1.418-3.665c0.284-0.265 6.354-6.065 5.858-19.568a2.11 2.11 0 0 1 2.029-2.184 2.117 2.117 0 0 1 2.184 2.028c0.572 15.636-6.924 22.562-7.244 22.849-0.404 0.363-0.907 0.54-1.409 0.54M63.629 62.51a2.1 2.1 0 0 1-1.401-0.539c-0.32-0.287-7.815-7.213-7.244-22.849a2.104 2.104 0 0 1 2.184-2.028 2.107 2.107 0 0 1 2.029 2.184c-0.496 13.534 5.6 19.329 5.859 19.568 0.851 0.787 0.912 2.117 0.133 2.972a2.12 2.12 0 0 1-1.56 0.692" fill="#e77917" data-fill-palette-color="accent"></path><path d="M81.15 40.773H18.848a2.106 2.106 0 0 1 0-4.214H81.15a2.107 2.107 0 1 1 0 4.214" fill="#e77917" data-fill-palette-color="accent"></path></svg></g></svg></g></svg></g></svg></g></svg></g><g></g></svg></g><defs></defs></svg><rect width="95.481" height="66.55374619959703" fill="none" stroke="none" visibility="hidden"></rect></g></svg></g></svg>