<?xml version="1.0" standalone="no"?>
<!DOCTYPE svg PUBLIC "-//W3C//DTD SVG 20010904//EN"
 "http://www.w3.org/TR/2001/REC-SVG-20010904/DTD/svg10.dtd">
<svg version="1.0" xmlns="http://www.w3.org/2000/svg"
 width="300.000000pt" height="225.000000pt" viewBox="0 0 300.000000 225.000000"
 preserveAspectRatio="xMidYMid meet">
<metadata>
Created by potrace 1.10, written by Peter Selinger 2001-2011
</metadata>
<g transform="translate(0.000000,225.000000) scale(0.100000,-0.100000)"
fill="#000000" stroke="none">
<path d="M1188 1655 c-2 -2 -46 -6 -98 -10 -72 -4 -98 -9 -107 -22 -18 -23
-20 -355 -3 -438 5 -25 8 52 9 203 l1 242 255 0 255 0 1 -247 c1 -247 9 -333
24 -285 6 19 14 22 56 22 l49 0 -20 -52 c-26 -72 -60 -218 -60 -260 0 -19 5
-39 11 -45 14 -14 38 -113 32 -130 -3 -8 -21 -13 -44 -13 l-39 0 -2 153 c-3
229 -5 291 -11 307 -23 66 -29 99 -35 200 -8 125 -7 202 2 265 3 22 3 31 0 20
-3 -11 -15 -45 -27 -75 -19 -48 -22 -73 -21 -185 1 -71 5 -148 9 -169 7 -32 6
-38 -6 -32 -8 4 -6 1 4 -7 10 -9 26 -44 34 -79 20 -79 23 -283 5 -315 -11 -20
-10 -23 3 -23 20 0 19 -29 -1 -37 -13 -5 -13 -7 -2 -14 8 -5 -11 -9 -49 -9
-51 0 -61 -3 -57 -15 9 -22 -22 -29 -59 -14 -17 8 -54 15 -82 16 -27 1 -72 4
-100 8 -48 7 -51 6 -73 -24 -30 -41 -37 -81 -18 -106 14 -19 28 -20 293 -23
170 -1 288 -6 305 -13 15 -6 32 -8 37 -4 21 12 57 16 174 17 113 1 119 2 137
26 11 13 20 32 20 42 0 27 -33 50 -72 50 -20 0 -41 7 -48 15 -7 8 -16 12 -21
9 -11 -6 -12 10 -1 20 4 4 8 12 8 17 1 5 3 11 4 14 1 3 3 8 5 13 1 4 9 23 17
42 13 28 14 45 6 88 -6 29 -8 55 -4 59 7 8 32 -22 48 -57 6 -16 12 -20 15 -12
3 7 -8 31 -23 52 -76 104 -74 101 -74 163 0 38 4 57 9 52 5 -6 29 -48 53 -95
25 -47 56 -104 71 -127 15 -24 27 -57 27 -76 0 -34 23 -77 32 -61 12 19 -23
114 -79 220 -90 168 -89 164 -58 188 23 19 28 33 34 104 0 6 10 12 21 12 13 0
20 6 19 18 0 10 -3 12 -6 5 -10 -26 -20 -12 -20 27 0 27 -8 50 -26 74 -56 73
-100 178 -62 146 11 -9 15 -9 15 -1 0 6 -7 14 -15 17 -8 4 -15 12 -15 20 0 8
-4 14 -10 14 -11 0 -49 81 -43 93 2 4 22 7 43 7 39 0 40 -1 74 -72 18 -40 37
-94 41 -121 3 -26 17 -79 31 -119 29 -85 30 -106 7 -125 -17 -14 -17 -14 0 -9
10 3 25 6 33 6 20 0 18 49 -5 115 -10 29 -22 73 -26 96 -15 91 -71 213 -110
241 -19 14 -130 9 -151 -7 -18 -15 -18 -16 11 -11 l30 6 31 -95 c20 -61 27
-96 20 -99 -6 -3 1 -15 15 -28 26 -23 41 -81 63 -250 l5 -38 -64 0 c-57 0 -64
2 -71 23 -10 29 -11 40 -5 52 11 21 10 44 -2 40 -9 -4 -12 11 -13 51 0 37 -5
58 -15 64 -16 10 -28 -8 -12 -19 17 -11 23 -40 13 -63 -9 -23 -9 -23 -9 -2 -1
12 -7 24 -15 27 -20 8 -15 -36 7 -58 17 -16 23 -69 11 -99 -4 -12 -20 -16 -55
-16 l-49 0 0 61 c0 37 4 58 10 54 6 -3 15 -3 21 1 7 4 2 11 -13 18 -26 13 -32
34 -24 80 8 42 40 76 71 76 13 0 35 4 48 9 20 8 24 15 19 37 l-5 27 -18 -21
c-17 -21 -17 -20 -17 59 1 64 -3 84 -17 97 -17 16 -17 15 -11 -23 4 -22 10
-65 13 -96 5 -49 3 -58 -13 -67 -18 -9 -19 -6 -19 52 0 47 -5 69 -23 96 -13
20 -21 26 -18 15 18 -73 18 -93 -4 -113 -19 -18 -23 -33 -25 -109 -2 -48 -4
-94 -4 -101 -1 -7 -7 -10 -13 -7 -7 4 -6 1 3 -7 9 -8 16 -33 18 -64 2 -46 0
-52 -21 -57 -42 -11 -46 7 -53 218 -5 177 -15 252 -35 278 -6 7 -305 19 -312
12z m629 -542 c-4 -3 0 -14 9 -24 11 -12 14 -27 9 -51 -4 -18 -6 -60 -5 -93
l1 -59 -21 19 c-26 23 -51 29 -43 9 4 -10 0 -12 -13 -8 -11 4 -16 4 -12 -1 4
-4 18 -9 30 -10 13 -1 26 -3 30 -4 4 0 19 -19 33 -41 26 -41 32 -79 16 -95 -6
-6 -11 -37 -13 -70 l-3 -60 -106 -3 -107 -3 13 38 c7 21 16 62 19 92 6 49 5
53 -8 41 -14 -11 -16 -9 -16 16 0 23 2 26 11 14 8 -12 9 -11 4 6 -3 11 2 38
12 60 9 21 15 51 14 66 -1 17 4 30 16 37 17 10 17 10 -3 11 -25 0 -44 37 -44
85 l0 35 92 0 c50 0 88 -3 85 -7z m46 -5 c2 -7 2 -19 -1 -26 -3 -9 -8 -8 -18
5 -7 10 -14 21 -14 26 0 12 28 8 33 -5z m-231 -222 c-17 -66 -20 -90 -12 -112
7 -17 7 -31 1 -37 -13 -13 -20 36 -16 113 2 36 4 67 5 70 1 3 2 8 1 12 0 4 4
19 9 34 8 21 14 24 22 16 9 -9 7 -32 -10 -96z m-365 -318 c-1 -13 -7 -29 -14
-36 -7 -7 -13 -20 -13 -28 0 -8 -5 -14 -11 -14 -7 0 -9 10 -5 25 4 14 4 25 1
25 -3 0 -10 -11 -15 -25 -12 -31 -30 -33 -24 -2 l5 22 -12 -22 c-9 -17 -20
-22 -50 -21 -41 0 -53 20 -27 46 19 19 38 14 38 -10 1 -23 1 -23 15 2 7 14 16
24 19 23 3 -2 19 -3 35 -3 20 0 30 6 34 20 7 27 26 25 24 -2z m160 0 c-1 -13
-7 -29 -14 -36 -7 -7 -13 -20 -13 -28 0 -8 -5 -14 -11 -14 -5 0 -9 10 -7 22 2
11 -3 23 -10 25 -8 3 -11 -4 -10 -19 3 -21 -1 -23 -45 -24 -53 -1 -63 6 -47
36 14 27 50 27 50 0 0 -11 4 -20 9 -20 5 0 8 8 7 18 -1 12 7 18 27 20 15 2 32
12 37 23 14 26 29 24 27 -3z m119 -2 c-4 -15 -1 -26 7 -29 9 -3 9 -9 1 -23
-14 -23 -94 -31 -94 -9 0 27 13 45 33 45 19 0 20 -1 2 -20 -15 -17 -16 -20 -3
-20 9 0 19 12 23 27 6 27 22 53 32 53 3 0 2 -11 -1 -24z m267 4 c3 -11 1 -23
-5 -26 -5 -3 -14 -18 -21 -32 l-11 -27 -4 28 c-2 15 -8 27 -14 27 -5 0 -8 -6
-5 -13 8 -21 -5 -33 -41 -40 -25 -5 -32 -3 -30 6 3 6 14 13 25 15 15 2 19 8
16 23 -5 19 3 23 39 20 9 -1 19 7 23 19 8 26 21 26 28 0z m-722 -10 c-14 -12
-18 -20 -10 -20 10 -1 9 -5 -3 -14 -10 -7 -18 -18 -18 -25 0 -6 -5 -11 -11
-11 -8 0 -9 12 -4 37 9 50 12 53 43 53 l27 -1 -24 -19z m804 -37 c-12 -24 -22
-30 -50 -31 -27 -1 -35 2 -35 16 0 40 49 58 51 20 0 -15 2 -18 6 -8 6 16 34
42 40 37 2 -2 -4 -17 -12 -34z m-444 0 c-7 -27 -31 -45 -31 -23 0 17 19 50 29
50 5 0 6 -12 2 -27z m189 10 c1 -17 1 -17 11 0 5 9 17 17 26 17 12 0 13 -3 4
-14 -7 -8 -16 -27 -20 -43 -7 -25 -26 -36 -26 -15 -1 22 -16 31 -35 20 -26
-16 -41 -1 -29 30 11 28 69 32 69 5z m317 -10 c-2 -20 -10 -29 -25 -31 -14 -2
-22 2 -22 11 0 29 12 47 31 47 16 0 19 -6 16 -27z"/>
<path d="M1693 883 c-13 -2 -23 -10 -23 -18 0 -7 -3 -21 -6 -29 -11 -28 19 -8
38 24 9 17 16 29 15 29 -1 -1 -12 -4 -24 -6z"/>
<path d="M1760 850 c0 -6 -10 -15 -22 -20 -14 -5 -17 -9 -7 -9 8 -1 20 4 27
11 7 7 12 8 12 3 0 -6 4 -5 8 1 5 7 13 5 27 -9 20 -20 20 -20 -3 -14 -19 4
-21 3 -11 -9 12 -15 8 -119 -7 -159 -4 -11 -3 -17 2 -12 17 16 44 102 33 106
-6 2 -3 12 8 24 10 11 12 17 5 13 -9 -5 -11 1 -6 28 5 32 2 37 -21 46 -33 13
-45 13 -45 0z"/>
<path d="M1044 1558 c11 -70 10 -87 -13 -237 -23 -153 -23 -193 2 -89 l15 63
1 -53 c0 -29 -4 -63 -10 -74 -6 -11 -12 -51 -14 -87 -2 -36 -10 -106 -19 -156
-17 -98 -21 -215 -6 -180 5 11 9 37 9 59 1 48 30 209 41 227 7 11 18 10 61 -4
29 -9 55 -15 57 -13 3 3 -63 29 -107 42 -15 5 -10 79 7 96 6 6 40 0 96 -17 83
-26 87 -26 140 -11 29 9 57 23 60 32 5 13 2 15 -14 11 -18 -5 -19 -3 -8 11 7
9 -3 3 -24 -13 -36 -29 -74 -39 -84 -23 -3 4 -10 6 -15 3 -5 -4 -15 -3 -21 2
-7 4 -17 8 -23 9 -17 3 -81 33 -71 34 5 0 3 7 -4 15 -7 9 -10 29 -6 52 3 21 9
69 12 108 4 46 12 74 23 83 14 12 14 12 -6 7 -12 -3 -25 0 -30 7 -15 24 -33
83 -33 111 0 15 -5 27 -11 27 -7 0 -9 -14 -5 -42z m51 -153 c6 -30 5 -37 -4
-29 -7 6 -14 28 -18 50 -8 53 13 33 22 -21z"/>
<path d="M1585 1578 c-18 -54 -26 -113 -29 -201 -2 -56 0 -91 5 -77 4 14 7 57
8 97 1 39 5 84 11 98 11 30 21 95 14 95 -3 0 -7 -6 -9 -12z"/>
<path d="M1094 1525 c-7 -17 4 -37 17 -30 12 8 12 45 -1 45 -6 0 -13 -7 -16
-15z"/>
<path d="M1400 1505 c0 -25 14 -34 24 -16 8 12 -3 41 -15 41 -5 0 -9 -11 -9
-25z"/>
<path d="M1697 1393 c-11 -10 -8 -61 3 -68 6 -4 10 10 10 34 0 42 -2 46 -13
34z"/>
<path d="M1760 1390 c0 -5 5 -10 11 -10 8 0 7 -5 -1 -16 -11 -12 -11 -15 1
-12 8 2 18 12 22 23 8 19 9 19 19 2 5 -10 8 -27 5 -38 -6 -23 -1 -24 19 -5 20
20 18 43 -5 56 -25 13 -71 13 -71 0z"/>
<path d="M1125 1377 c3 -10 5 -29 5 -42 0 -14 7 -25 20 -28 13 -3 20 0 20 9 0
8 -4 14 -8 14 -5 0 -16 15 -26 33 -9 17 -14 24 -11 14z"/>
<path d="M1365 1382 c-6 -4 -12 -18 -12 -31 -2 -28 -19 -42 -41 -33 -9 3 -13
1 -9 -5 4 -6 15 -13 26 -16 15 -4 24 3 36 29 17 37 17 68 0 56z"/>
<path d="M1066 1095 c-8 -23 -8 -27 3 -21 5 4 12 0 15 -6 3 -7 3 -3 0 9 -4 18
-1 20 16 16 11 -3 20 -14 20 -24 0 -11 7 -19 15 -19 9 0 12 6 9 15 -4 8 -3 15
0 15 4 0 11 -11 16 -25 12 -32 30 -32 30 -1 0 20 -7 25 -44 35 -24 6 -50 13
-58 16 -9 4 -18 -1 -22 -10z"/>
<path d="M1367 1093 c-4 -3 -7 -14 -7 -24 0 -12 6 -16 20 -12 22 6 28 43 7 43
-8 0 -17 -3 -20 -7z"/>
<path d="M1340 1083 c0 -6 -6 -11 -12 -10 -36 1 -58 -4 -58 -14 0 -6 9 -9 20
-6 11 3 18 1 15 -3 -3 -5 -1 -11 5 -15 5 -3 10 2 11 12 0 16 1 16 9 -2 7 -18
8 -18 15 8 4 15 5 31 1 34 -3 4 -6 2 -6 -4z"/>
<path d="M1200 1072 c0 -6 6 -13 13 -15 10 -4 10 -6 0 -6 -7 -1 -13 -10 -13
-21 0 -11 -5 -20 -12 -20 -6 0 -4 -8 6 -19 11 -12 21 -47 26 -88 8 -59 6 -77
-15 -140 -28 -83 -43 -167 -26 -143 6 8 11 22 11 31 0 9 9 39 21 67 20 47 23
50 44 40 15 -7 27 -26 36 -56 7 -25 14 -41 17 -34 2 6 -6 38 -18 69 -18 47
-21 70 -16 122 4 35 13 78 21 97 7 18 12 40 11 49 -3 19 -26 36 -38 29 -10 -7
2 -57 16 -66 7 -5 7 -8 -2 -8 -7 0 -10 -4 -7 -10 3 -5 1 -10 -5 -10 -7 0 -9
-8 -5 -20 7 -21 -9 -58 -18 -43 -9 14 -11 106 -3 126 6 11 4 17 -5 17 -11 0
-11 3 1 10 13 8 12 10 -3 10 -10 0 -16 4 -13 9 3 5 -1 14 -9 21 -9 8 -15 8
-15 2z"/>
<path d="M1009 731 c-7 -19 13 -111 24 -111 9 0 7 22 -10 90 -5 19 -11 29 -14
21z"/>
</g>
</svg>
