<svg width="194pt" height="49pt" viewBox="0 0 194 49" xmlns="http://www.w3.org/2000/svg"><g id="fontsvg1709323254920" stroke-linecap="round" fill-rule="evenodd" fill="#f8f6f6"><path d="M 63.208 42.969 L 55.127 42.969 L 48.462 0 L 54.688 0 L 57.495 19.41 L 59.229 33.081 L 59.399 33.081 L 60.889 19.41 L 63.232 0 L 69.336 0 L 63.208 42.969 Z M 193.115 16.529 L 193.115 18.531 L 187.329 18.531 L 187.329 16.114 A 17.641 17.641 0 0 0 187.285 14.814 Q 187.193 13.571 186.909 12.765 A 3.899 3.899 0 0 0 186.768 12.415 A 2.314 2.314 0 0 0 186.319 11.752 Q 185.849 11.279 185.127 11.216 A 2.621 2.621 0 0 0 184.9 11.206 A 3.567 3.567 0 0 0 184.167 11.277 Q 183.728 11.369 183.397 11.583 A 1.854 1.854 0 0 0 182.971 11.963 A 2.164 2.164 0 0 0 182.623 12.593 Q 182.398 13.203 182.357 14.133 A 9.692 9.692 0 0 0 182.349 14.551 A 6.613 6.613 0 0 0 183.49 18.227 A 9.977 9.977 0 0 0 184.937 19.947 L 188.403 23.096 A 19.655 19.655 0 0 1 191.447 26.638 A 13.255 13.255 0 0 1 193.75 34.058 A 16.549 16.549 0 0 1 193.563 36.635 Q 193.348 37.994 192.887 39.082 A 7.066 7.066 0 0 1 191.626 41.089 A 6.572 6.572 0 0 1 188.812 42.883 Q 187.753 43.244 186.457 43.368 A 14.946 14.946 0 0 1 185.034 43.433 A 12.366 12.366 0 0 1 182.529 43.196 Q 181.061 42.892 179.952 42.198 A 6.296 6.296 0 0 1 178.442 40.882 A 7.627 7.627 0 0 1 177.169 38.592 Q 176.403 36.492 176.327 33.39 A 28.429 28.429 0 0 1 176.318 32.691 L 176.318 30.323 L 182.397 30.323 L 182.397 33.277 A 14.378 14.378 0 0 0 182.481 34.905 Q 182.669 36.544 183.278 37.357 A 1.908 1.908 0 0 0 184.888 38.16 A 3.156 3.156 0 0 0 185.606 38.083 Q 186.108 37.966 186.458 37.668 A 1.85 1.85 0 0 0 186.792 37.293 A 2.598 2.598 0 0 0 187.098 36.643 Q 187.315 35.978 187.364 34.965 A 12.803 12.803 0 0 0 187.378 34.351 Q 187.378 30.689 184.009 27.564 A 1.985 1.985 0 0 0 183.963 27.52 Q 183.76 27.333 182.783 26.46 A 834.399 834.399 0 0 0 182.434 26.148 A 314.079 314.079 0 0 1 181.924 25.691 Q 181.047 24.906 180.781 24.652 A 4.191 4.191 0 0 1 180.713 24.585 A 14.801 14.801 0 0 1 177.789 20.995 A 12.124 12.124 0 0 1 176.196 14.893 Q 176.196 5.909 184.839 5.909 Q 189.136 5.909 191.125 8.362 A 7.163 7.163 0 0 1 192.258 10.434 Q 193.115 12.78 193.115 16.529 Z M 147.754 6.348 L 147.754 38.453 A 15.55 15.55 0 0 1 147.496 41.373 Q 147.17 43.078 146.431 44.416 A 8.25 8.25 0 0 1 145.471 45.801 A 6.74 6.74 0 0 1 142.756 47.666 Q 140.727 48.462 137.756 48.462 A 18.338 18.338 0 0 1 134.171 48.132 Q 131.17 47.534 129.077 45.85 L 131.348 41.773 Q 133.534 43.169 135.5 43.515 A 7.316 7.316 0 0 0 136.768 43.628 A 7.82 7.82 0 0 0 137.997 43.539 Q 138.639 43.436 139.142 43.216 A 2.904 2.904 0 0 0 140.283 42.359 A 4.392 4.392 0 0 0 141.061 40.775 Q 141.228 40.161 141.27 39.436 A 8.581 8.581 0 0 0 141.284 38.941 L 141.284 36.036 Q 140.674 37.793 139.417 38.514 A 5.05 5.05 0 0 1 138.085 39.031 Q 137.48 39.177 136.774 39.218 A 9.782 9.782 0 0 1 136.206 39.234 A 7.964 7.964 0 0 1 134.187 38.995 A 4.959 4.959 0 0 1 130.896 36.377 Q 129.778 34.214 129.506 30.96 A 26.489 26.489 0 0 1 129.419 28.76 L 129.419 16.968 A 26.395 26.395 0 0 1 129.663 13.21 Q 130.307 8.756 132.655 7.019 A 6.045 6.045 0 0 1 136.353 5.909 L 136.45 5.909 Q 140.259 5.909 141.284 9.595 L 141.284 6.348 L 147.754 6.348 Z M 153.491 30.787 L 153.491 17.139 Q 153.491 7.178 160.847 6.052 A 13.188 13.188 0 0 1 162.842 5.909 A 13.062 13.062 0 0 1 165.336 6.129 Q 168.346 6.716 169.739 8.863 Q 171.655 11.817 171.655 17.261 L 171.655 25.098 L 160.01 25.098 L 160.01 32.3 A 35.577 35.577 0 0 0 160.033 33.631 Q 160.113 35.772 160.473 36.739 A 2.181 2.181 0 0 0 160.669 37.146 A 2.119 2.119 0 0 0 162.194 38.15 A 2.946 2.946 0 0 0 162.646 38.184 A 4.419 4.419 0 0 0 163.214 38.15 Q 163.826 38.071 164.152 37.802 A 0.982 0.982 0 0 0 164.355 37.574 Q 165.015 36.499 165.112 35.376 Q 165.21 34.253 165.21 32.3 L 165.21 29.078 L 171.606 29.078 L 171.606 31.031 A 50.969 50.969 0 0 1 171.558 33.345 Q 171.411 36.554 170.825 38.184 A 13.563 13.563 0 0 1 170.32 39.411 Q 169.728 40.658 169.019 41.333 A 6.739 6.739 0 0 1 166.446 42.853 Q 165.415 43.2 164.16 43.33 A 15.385 15.385 0 0 1 162.573 43.409 Q 156.396 43.409 154.614 38.697 A 15.278 15.278 0 0 1 153.935 36.206 Q 153.689 34.912 153.579 33.386 A 36.312 36.312 0 0 1 153.491 30.787 Z M 105.298 33.35 L 105.298 31.006 A 13.855 13.855 0 0 1 105.546 28.298 Q 106.091 25.563 107.837 23.902 A 8.665 8.665 0 0 1 109.081 22.919 Q 110.449 22.012 112.59 21.137 A 35.885 35.885 0 0 1 113.379 20.826 Q 114.087 20.557 115.344 20.093 A 493.004 493.004 0 0 0 115.926 19.878 Q 116.73 19.58 117.114 19.434 L 117.114 16.236 A 32.791 32.791 0 0 0 117.091 14.945 Q 117.02 13.149 116.733 12.319 A 2.648 2.648 0 0 0 116.687 12.195 A 1.578 1.578 0 0 0 115.585 11.238 Q 115.214 11.133 114.734 11.133 A 3.203 3.203 0 0 0 113.995 11.212 A 1.807 1.807 0 0 0 112.695 12.256 A 4.096 4.096 0 0 0 112.448 13.007 Q 112.183 14.125 112.183 16.04 L 112.183 17.676 L 105.786 17.676 L 105.786 16.578 A 22.371 22.371 0 0 1 105.966 13.638 Q 106.159 12.188 106.558 10.999 A 8.983 8.983 0 0 1 107.727 8.643 A 5.89 5.89 0 0 1 110.527 6.55 Q 111.557 6.159 112.848 6.006 A 15.039 15.039 0 0 1 114.612 5.909 A 14.02 14.02 0 0 1 117.167 6.125 Q 118.562 6.384 119.633 6.953 A 6.087 6.087 0 0 1 121.643 8.643 A 8.74 8.74 0 0 1 122.955 11.196 Q 123.364 12.418 123.557 13.923 A 23.013 23.013 0 0 1 123.73 16.846 L 123.73 42.969 L 117.212 42.969 L 117.212 39.331 A 5.733 5.733 0 0 1 115.344 42.176 A 4.927 4.927 0 0 1 112.373 43.325 A 6.319 6.319 0 0 1 112.012 43.335 Q 108.423 43.335 106.885 40.76 Q 105.347 38.184 105.298 33.35 Z M 6.299 42.969 L 0 42.969 L 6.128 0 L 14.771 0 L 21.289 42.969 L 15.186 42.969 L 14.16 35.303 L 7.227 35.303 L 6.299 42.969 Z M 89.404 42.969 L 82.861 42.969 L 82.861 0 L 92.725 0 A 12.827 12.827 0 0 1 95.16 0.215 Q 96.522 0.479 97.546 1.068 A 5.587 5.587 0 0 1 99.573 3.04 Q 101.316 5.914 101.498 11.462 A 38.951 38.951 0 0 1 101.514 12.11 L 101.514 13.013 A 36.076 36.076 0 0 1 101.353 16.539 Q 101.007 20.053 99.913 22.297 A 9.68 9.68 0 0 1 99.695 22.718 A 6.02 6.02 0 0 1 95.846 25.67 Q 94.563 26.026 92.944 26.026 L 89.404 26.026 L 89.404 42.969 Z M 35.181 42.969 L 25.757 42.969 L 25.757 0 L 35.4 0 A 12.621 12.621 0 0 1 37.983 0.247 Q 40.771 0.83 42.273 2.796 Q 43.834 4.839 44.255 8.298 A 22.754 22.754 0 0 1 44.409 11.036 L 44.434 30.42 A 31.184 31.184 0 0 1 44.265 33.788 Q 43.89 37.228 42.681 39.323 A 7.827 7.827 0 0 1 42.285 39.942 Q 40.32 42.71 36.007 42.947 A 15.094 15.094 0 0 1 35.181 42.969 Z M 32.3 5.03 L 32.3 37.891 L 34.448 37.891 Q 35.842 37.891 36.647 37.193 A 2.57 2.57 0 0 0 37.073 36.719 A 3.292 3.292 0 0 0 37.477 35.878 Q 37.891 34.644 37.891 32.422 L 37.866 11.206 Q 37.866 8.582 37.363 7.145 A 4.126 4.126 0 0 0 37.048 6.446 A 2.712 2.712 0 0 0 35.155 5.118 A 4.564 4.564 0 0 0 34.229 5.03 L 32.3 5.03 Z M 141.284 28.418 L 141.284 16.431 A 17.044 17.044 0 0 0 141.229 15.014 Q 141.113 13.625 140.751 12.71 A 4.52 4.52 0 0 0 140.662 12.5 A 2.412 2.412 0 0 0 140.078 11.684 Q 139.614 11.271 138.932 11.168 A 3.204 3.204 0 0 0 138.452 11.133 A 2.715 2.715 0 0 0 137.658 11.241 Q 136.809 11.501 136.457 12.383 A 2.745 2.745 0 0 0 136.401 12.537 A 7.546 7.546 0 0 0 136.142 13.6 Q 135.938 14.769 135.938 16.407 L 135.938 28.467 A 25.649 25.649 0 0 0 135.973 29.87 Q 136.081 31.827 136.511 32.898 Q 137.029 34.188 138.303 34.313 A 2.892 2.892 0 0 0 138.586 34.327 A 2.714 2.714 0 0 0 139.437 34.201 Q 140.275 33.926 140.686 33.045 Q 141.14 32.072 141.249 29.911 A 29.653 29.653 0 0 0 141.284 28.418 Z M 7.861 30.054 L 13.477 30.054 L 10.596 8.472 L 10.498 8.472 L 7.861 30.054 Z M 89.404 5.03 L 89.404 20.63 L 91.65 20.63 Q 93.083 20.63 93.823 19.869 A 2.47 2.47 0 0 0 94.348 19.031 Q 94.926 17.548 94.967 13.576 A 60.387 60.387 0 0 0 94.971 12.94 L 94.971 12.11 A 36.505 36.505 0 0 0 94.92 10.341 Q 94.826 8.646 94.565 7.536 A 6.317 6.317 0 0 0 94.299 6.665 Q 93.78 5.353 92.421 5.094 A 3.848 3.848 0 0 0 91.699 5.03 L 89.404 5.03 Z M 117.114 35.523 L 117.114 23.096 A 26.826 26.826 0 0 0 115.701 23.771 Q 114.325 24.482 113.52 25.151 A 4.987 4.987 0 0 0 112.964 25.684 A 3.733 3.733 0 0 0 112.268 26.897 Q 111.89 27.946 111.89 29.468 L 111.89 33.399 A 19.629 19.629 0 0 0 111.923 34.59 Q 111.995 35.764 112.22 36.525 A 3.615 3.615 0 0 0 112.427 37.073 A 2.165 2.165 0 0 0 112.86 37.691 Q 113.304 38.122 113.975 38.176 A 2.457 2.457 0 0 0 114.172 38.184 A 2.912 2.912 0 0 0 115.146 38.027 A 2.507 2.507 0 0 0 116.15 37.366 A 3.838 3.838 0 0 0 116.881 36.278 A 3.505 3.505 0 0 0 117.114 35.523 Z M 159.985 16.797 L 159.985 21.314 L 165.21 21.314 L 165.21 16.626 Q 165.21 14.293 164.923 12.984 A 5.241 5.241 0 0 0 164.734 12.317 Q 164.341 11.238 163.272 11.051 A 2.772 2.772 0 0 0 162.793 11.011 L 162.769 11.011 A 2.267 2.267 0 0 0 160.639 12.265 Q 160.118 13.217 160.034 14.893 Q 159.985 15.625 159.985 16.797 Z" vector-effect="non-scaling-stroke"/></g></svg>